# xmcd
#
# Track frame offsets: 
#        150
#        22667
#        36837
#        55569
#        73372
#        88865
#        100207
#        116970
#        126357
#        142162
#        154082
#        169861
#
# Disc length: 2309 seconds
#
# Revision: 0
# Processed by: cddbd v1.5.2PL0 Copyright (c) Steve Scherf et al.
# Submitted via: ExactAudioCopyFreeDBPlugin 1.0
#
DISCID=aa09030c
DTITLE=Amy LaVere - Runaway's Diary
DYEAR=2014
DGENRE=Country/Rock
TTITLE0=Rabbit
TTITLE1=Last Rock'n Roll Boy to Dance
TTITLE2=Big Sister
TTITLE3=Self Made Orphan
TTITLE4=Where I Lead Me
TTITLE5=Snowflake
TTITLE6=How?
TTITLE7=Don't Go Yet John
TTITLE8=Lousy Pretender
TTITLE9=Dark Moon
TTITLE10=I'll Be Home Soon
TTITLE11=Reprise
EXTD=
EXTT0=
EXTT1=
EXTT2=
EXTT3=
EXTT4=
EXTT5=
EXTT6=
EXTT7=
EXTT8=
EXTT9=
EXTT10=
EXTT11=
PLAYORDER=
